<svg width="609" height="213" viewBox="0 0 609 213" fill="none" xmlns="http://www.w3.org/2000/svg">
<path d="M191.3 202.2L124.4 6C123.2 2.09999 120.2 -1.43051e-05 116.3 -1.43051e-05H77.3C73.4 -1.43051e-05 70.4 2.09999 69.2 6L2.3 202.2C0.5 207.3 3.2 210 8.3 210H38.3C42.2 210 45.2 208.2 46.4 204.3L56.3 172.5H137L147.2 204.3C148.4 208.2 151.1 210 155.3 210H185.3C190.4 210 192.8 207.3 191.3 202.2ZM68.9 133.8L96.8 45.9L124.7 133.8H68.9ZM264.996 107.4C250.196 107.4 239.596 112.8 232.396 122V74.8C232.396 71.8 230.796 70 227.796 70H211.396C208.396 70 206.596 71.8 206.596 74.8V205.4C206.596 208.4 208.396 210 211.396 210H227.796C230.796 210 232.396 208.4 232.396 205.4V198.2C239.596 207.4 250.196 212.8 264.996 212.8C291.596 212.8 313.596 189.8 313.596 160C313.596 130.4 291.596 107.4 264.996 107.4ZM260.196 188.2C244.196 188.2 232.396 176.8 232.396 160C232.396 143.2 244.196 131.8 260.196 131.8C275.996 131.8 287.796 143.2 287.796 160C287.796 176.8 275.996 188.2 260.196 188.2ZM379.591 212.8C408.791 212.8 432.391 189.8 432.391 160C432.391 130.4 408.791 107.4 379.591 107.4C350.191 107.4 326.591 130.4 326.591 160C326.591 189.8 350.191 212.8 379.591 212.8ZM379.591 187.6C364.191 187.6 352.391 176.2 352.391 160C352.391 143.8 364.191 132.4 379.591 132.4C394.791 132.4 406.591 143.8 406.591 160C406.591 176.2 394.791 187.6 379.591 187.6ZM528.741 110H512.541C509.541 110 507.741 111.8 507.741 114.8V168C507.741 183 499.941 188.8 489.741 188.8C480.741 188.8 473.941 183.4 473.941 172V114.8C473.941 111.8 472.141 110 469.141 110H452.741C449.741 110 448.141 111.8 448.141 114.8V174C448.141 198.4 461.941 212.8 480.541 212.8C492.941 212.8 502.141 208.2 507.741 199.8V205.4C507.741 208.4 509.541 210 512.541 210H528.741C531.941 210 533.541 208.4 533.541 205.4V114.8C533.541 111.8 531.941 110 528.741 110ZM603.987 110H591.587V82.8C591.587 79.8 589.987 78 586.787 78H570.587C567.587 78 565.787 79.8 565.787 82.8V110H553.387C550.187 110 548.587 111.8 548.587 114.8V130.2C548.587 133.2 550.187 134.8 553.387 134.8H565.787V205.4C565.787 208.4 567.587 210 570.587 210H586.787C589.987 210 591.587 208.4 591.587 205.4V134.8H603.987C607.187 134.8 608.787 133.2 608.787 130.2V114.8C608.787 111.8 607.187 110 603.987 110Z" fill="#666666"/>
</svg>
