<svg width="599" height="213" viewBox="0 0 599 213" fill="none" xmlns="http://www.w3.org/2000/svg">
<path d="M198.8 -1.43051e-05H185.3H164.6C160.7 -1.43051e-05 158 1.8 156.5 5.39999L103.1 128.4L49.7 5.39999C48.2 1.8 45.5 -1.43051e-05 41.6 -1.43051e-05H34.4H7.4C2.9 -1.43051e-05 0.500002 2.69999 0.500002 7.19998V203.1C0.500002 207.6 2.9 210 7.4 210H34.4C39.2 210 41.6 207.6 41.6 203.1V69L85.7 171C87.2 174.9 90.2 176.4 94.1 176.4H112.1C116.3 176.4 119 174.9 120.5 171L164.6 69V203.1C164.6 207.6 167.3 210 171.8 210H198.8C203.3 210 206 207.6 206 203.1V7.19998C206 2.69999 203.3 -1.43051e-05 198.8 -1.43051e-05ZM285.029 212.8C314.229 212.8 337.829 189.8 337.829 160C337.829 130.4 314.229 107.4 285.029 107.4C255.629 107.4 232.029 130.4 232.029 160C232.029 189.8 255.629 212.8 285.029 212.8ZM285.029 187.6C269.629 187.6 257.829 176.2 257.829 160C257.829 143.8 269.629 132.4 285.029 132.4C300.229 132.4 312.029 143.8 312.029 160C312.029 176.2 300.229 187.6 285.029 187.6ZM433.291 110H415.691C413.091 110 411.291 111.4 410.491 114L389.691 178.4L368.891 114C368.091 111.4 366.091 110 363.491 110H346.091C342.691 110 340.891 112.2 342.091 115.6L375.091 206.2C375.891 208.8 377.691 210 380.291 210H385.091H398.891C401.491 210 403.291 208.8 404.291 206.2L437.091 115.6C438.291 112.2 436.691 110 433.291 110ZM456.091 96H472.491C475.491 96 477.091 94.4 477.091 91.4V74.8C477.091 71.8 475.491 70 472.491 70H456.091C453.091 70 451.291 71.8 451.291 74.8V91.4C451.291 94.4 453.091 96 456.091 96ZM456.091 210H472.491C475.491 210 477.091 208.4 477.091 205.4V114.8C477.091 111.8 475.491 110 472.491 110H456.091C453.091 110 451.291 111.8 451.291 114.8V205.4C451.291 208.4 453.091 210 456.091 210ZM548.505 107.4C517.105 107.4 495.505 130.4 495.505 160C495.505 190 516.505 212.8 549.105 212.8C569.505 212.8 585.905 203.4 593.505 186.6C594.905 183.6 593.105 181.4 589.505 181.4H573.505C571.105 181.4 569.505 182.4 567.705 184.2C563.705 188.4 557.105 191.4 549.505 191.4C536.705 191.4 525.905 185 522.305 170.8H572.505H593.105C595.905 170.8 597.905 169.4 598.105 166.4C598.305 164.4 598.505 162.4 598.505 160.2C598.505 130.6 578.105 107.4 548.505 107.4ZM522.305 150.4C525.305 138 534.705 130.6 548.305 130.6C559.105 130.6 569.705 136.2 572.705 150.4H522.305Z" fill="#666666"/>
</svg>
