<svg width="557" height="213" viewBox="0 0 557 213" fill="none" xmlns="http://www.w3.org/2000/svg">
<path d="M78.8 -1.43051e-05H41.6H7.4C2.9 -1.43051e-05 0.500002 2.69999 0.500002 7.19998V203.1C0.500002 207.6 2.9 210 7.4 210H34.4C39.2 210 41.6 207.6 41.6 203.1V139.5H78.8C118.4 139.5 149.6 108.3 149.6 69.9C149.6 31.2 118.4 -1.43051e-05 78.8 -1.43051e-05ZM78.8 100.8H41.6V38.7H78.8C95.6 38.7 108.5 52.5 108.5 69.9C108.5 87.3 95.6 100.8 78.8 100.8ZM221.967 107.4C209.567 107.4 200.367 112 194.767 120.4V74.8C194.767 71.8 193.167 70 189.967 70H173.767C170.767 70 168.967 71.8 168.967 74.8V205.4C168.967 208.4 170.767 210 173.767 210H189.967C193.167 210 194.767 208.4 194.767 205.4V152.2C194.767 137.2 202.767 131.2 212.767 131.2C221.967 131.2 228.767 136.6 228.767 148.2V205.4C228.767 208.4 230.367 210 233.367 210H249.767C252.767 210 254.567 208.4 254.567 205.4V146.2C254.567 121.6 240.567 107.4 221.967 107.4ZM323.213 212.8C352.413 212.8 376.013 189.8 376.013 160C376.013 130.4 352.413 107.4 323.213 107.4C293.813 107.4 270.213 130.4 270.213 160C270.213 189.8 293.813 212.8 323.213 212.8ZM323.213 187.6C307.813 187.6 296.013 176.2 296.013 160C296.013 143.8 307.813 132.4 323.213 132.4C338.413 132.4 350.213 143.8 350.213 160C350.213 176.2 338.413 187.6 323.213 187.6ZM439.014 110H426.614V82.8C426.614 79.8 425.014 78 421.814 78H405.614C402.614 78 400.814 79.8 400.814 82.8V110H388.414C385.214 110 383.614 111.8 383.614 114.8V130.2C383.614 133.2 385.214 134.8 388.414 134.8H400.814V205.4C400.814 208.4 402.614 210 405.614 210H421.814C425.014 210 426.614 208.4 426.614 205.4V134.8H439.014C442.214 134.8 443.814 133.2 443.814 130.2V114.8C443.814 111.8 442.214 110 439.014 110ZM504.072 212.8C533.272 212.8 556.872 189.8 556.872 160C556.872 130.4 533.272 107.4 504.072 107.4C474.672 107.4 451.072 130.4 451.072 160C451.072 189.8 474.672 212.8 504.072 212.8ZM504.072 187.6C488.672 187.6 476.872 176.2 476.872 160C476.872 143.8 488.672 132.4 504.072 132.4C519.272 132.4 531.072 143.8 531.072 160C531.072 176.2 519.272 187.6 504.072 187.6Z" fill="#666666"/>
</svg>
