<svg width="858" height="219" viewBox="0 0 858 219" fill="none" xmlns="http://www.w3.org/2000/svg">
<path d="M77 218.2C116 218.2 149.3 196.9 149.3 156.7C149.3 112.3 109.7 101.5 79.1 90.4C59.9 83.2 45.5 76.6 45.5 61C45.5 49 55.4 40.3 72.5 40.3C88.7 40.3 98.9 46.9 101.6 61C102.2 65.5 104.6 67.6 108.8 67.6H135.8C140.6 67.6 143.3 65.2 143 60.4C139.4 19 107 0.0999823 72.5 0.0999823C37.4 0.0999823 4.1 20.8 4.1 61C4.1 105.7 41 117.7 71.3 128.2C91.1 135.4 107.9 141.7 107.9 156.7C107.9 169 98 178 77 178C56.6 178 44.6 170.5 42.2 156.4C41.3 151.6 39.2 149.5 34.7 149.5H7.7C3.2 149.5 0.5 151.9 0.8 156.7C4.1 198.7 38 218.2 77 218.2ZM216.17 216.8C245.37 216.8 268.97 193.8 268.97 164C268.97 134.4 245.37 111.4 216.17 111.4C186.77 111.4 163.17 134.4 163.17 164C163.17 193.8 186.77 216.8 216.17 216.8ZM216.17 191.6C200.77 191.6 188.97 180.2 188.97 164C188.97 147.8 200.77 136.4 216.17 136.4C231.37 136.4 243.17 147.8 243.17 164C243.17 180.2 231.37 191.6 216.17 191.6ZM335.52 112.6C325.52 113.8 317.32 119 312.92 129.2V118.8C312.92 115.8 311.32 114 308.32 114H291.92C288.92 114 287.12 115.8 287.12 118.8V209.4C287.12 212.4 288.92 214 291.92 214H308.32C311.32 214 312.92 212.4 312.92 209.4V164.8C312.92 147 324.52 140.6 336.72 140.6C339.12 140.6 340.32 139 340.32 136V117C340.32 114 338.72 112 335.52 112.6ZM392.554 111.4C371.954 111.4 354.554 122.6 351.954 143.2C351.754 146.4 353.754 148 356.754 148H372.754C375.554 148 376.554 146.6 377.754 143.8C379.354 138.4 384.954 135.2 392.554 135.2C401.954 135.2 407.954 140.2 407.954 152V162.8C402.154 157.6 393.554 153.8 380.954 153.8C363.154 153.8 347.154 164.4 347.154 185.4C347.154 206.4 363.154 216.8 380.954 216.8C393.554 216.8 402.154 212.4 407.954 205.4V209.4C407.954 212.4 409.754 214.2 412.754 214.2H428.354C431.554 214.2 433.154 212.4 433.154 209.4V150.6C433.154 124.6 414.554 111.4 392.554 111.4ZM389.554 197.8C378.354 197.8 372.954 192.6 372.954 185.4C372.954 178.2 378.354 173 389.554 173C400.954 173 407.954 177.6 407.954 185.4C407.954 192.6 400.954 197.8 389.554 197.8ZM540.312 208.4L504.912 163.6L538.512 119.8C540.912 116.6 539.512 114 535.712 114H516.512C514.112 114 512.312 115 510.912 117L479.912 158V78.8C479.912 75.8 478.312 74 475.312 74H458.912C455.912 74 454.112 75.8 454.112 78.8V209.4C454.112 212.4 455.912 214 458.912 214H475.312C478.312 214 479.912 212.4 479.912 209.4V169L512.912 211.2C514.312 213.2 516.112 214 518.512 214H537.512C541.512 214 542.712 211.4 540.312 208.4ZM562.232 100H578.632C581.632 100 583.232 98.4 583.232 95.4V78.8C583.232 75.8 581.632 74 578.632 74H562.232C559.232 74 557.432 75.8 557.432 78.8V95.4C557.432 98.4 559.232 100 562.232 100ZM562.232 214H578.632C581.632 214 583.232 212.4 583.232 209.4V118.8C583.232 115.8 581.632 114 578.632 114H562.232C559.232 114 557.432 115.8 557.432 118.8V209.4C557.432 212.4 559.232 214 562.232 214ZM708.246 111.4C696.646 111.4 687.646 116 680.846 124.6C675.646 116 667.046 111.4 656.646 111.4C646.646 111.4 638.046 115.8 632.646 123.8V118.8C632.646 115.8 631.046 114 628.046 114H611.646C608.646 114 606.846 115.8 606.846 118.8V209.4C606.846 212.4 608.646 214 611.646 214H628.046C631.046 214 632.646 212.4 632.646 209.4V152.2C632.646 139.2 640.446 135.2 647.446 135.2C654.446 135.2 660.246 138.6 660.246 148.6V209.4C660.246 212.4 662.046 214 665.046 214H681.246C684.446 214 686.046 212.4 686.046 209.4V152.2C686.046 139.2 693.846 135.2 700.846 135.2C707.646 135.2 713.646 138.6 713.646 148.6V209.4C713.646 212.4 715.246 214 718.446 214H734.646C737.646 214 739.446 212.4 739.446 209.4V146.6C739.446 123.6 727.246 111.4 708.246 111.4ZM807.966 111.4C776.566 111.4 754.966 134.4 754.966 164C754.966 194 775.966 216.8 808.566 216.8C828.966 216.8 845.366 207.4 852.966 190.6C854.366 187.6 852.566 185.4 848.966 185.4H832.966C830.566 185.4 828.966 186.4 827.166 188.2C823.166 192.4 816.566 195.4 808.966 195.4C796.166 195.4 785.366 189 781.766 174.8H831.966H852.566C855.366 174.8 857.366 173.4 857.566 170.4C857.766 168.4 857.966 166.4 857.966 164.2C857.966 134.6 837.566 111.4 807.966 111.4ZM781.766 154.4C784.766 142 794.166 134.6 807.766 134.6C818.566 134.6 829.166 140.2 832.166 154.4H781.766Z" fill="#666666"/>
</svg>
