<svg width="609" height="213" viewBox="0 0 609 213" fill="none" xmlns="http://www.w3.org/2000/svg">
<path d="M256.7 -1.43051e-05H228.5C224.3 -1.43051e-05 221.6 2.39999 220.7 6.29999L180.2 157.5L140 6.29999C139.1 2.39999 136.4 -1.43051e-05 132.2 -1.43051e-05H108.2C103.1 -1.43051e-05 101 2.99998 102.2 8.09999L114.5 50.7L84.5 157.5L44 6.29999C43.1 2.39999 40.4 -1.43051e-05 36.2 -1.43051e-05H8C2.9 -1.43051e-05 0.5 2.99998 2 8.09999L57.8 204C58.7 208.2 61.7 210 65.6 210H98.9C102.8 210 105.5 208.2 106.7 204L132.5 114L158 204C159.2 208.2 161.9 210 166.1 210H199.1C203 210 206 208.2 207.2 204L262.7 8.09999C264.2 2.99998 261.8 -1.43051e-05 256.7 -1.43051e-05ZM298.295 212.8C327.495 212.8 351.095 189.8 351.095 160C351.095 130.4 327.495 107.4 298.295 107.4C268.895 107.4 245.295 130.4 245.295 160C245.295 189.8 268.895 212.8 298.295 212.8ZM298.295 187.6C282.895 187.6 271.095 176.2 271.095 160C271.095 143.8 282.895 132.4 298.295 132.4C313.495 132.4 325.295 143.8 325.295 160C325.295 176.2 313.495 187.6 298.295 187.6ZM417.645 108.6C407.645 109.8 399.445 115 395.045 125.2V114.8C395.045 111.8 393.445 110 390.445 110H374.045C371.045 110 369.245 111.8 369.245 114.8V205.4C369.245 208.4 371.045 210 374.045 210H390.445C393.445 210 395.045 208.4 395.045 205.4V160.8C395.045 143 406.645 136.6 418.845 136.6C421.245 136.6 422.445 135 422.445 132V113C422.445 110 420.845 108 417.645 108.6ZM522.827 204.4L487.427 159.6L521.027 115.8C523.427 112.6 522.027 110 518.227 110H499.027C496.627 110 494.827 111 493.427 113L462.427 154V74.8C462.427 71.8 460.827 70 457.827 70H441.427C438.427 70 436.627 71.8 436.627 74.8V205.4C436.627 208.4 438.427 210 441.427 210H457.827C460.827 210 462.427 208.4 462.427 205.4V165L495.427 207.2C496.827 209.2 498.627 210 501.027 210H520.027C524.027 210 525.227 207.4 522.827 204.4ZM554.74 139.2C554.74 133.4 559.94 130 568.14 130C574.14 130 579.14 132.6 580.54 137.6C581.74 140.4 582.94 142 585.74 142H601.74C604.74 142 606.74 140.2 606.34 137C603.94 116.8 586.94 107.4 568.14 107.4C547.34 107.4 528.94 118 528.94 139.2C528.94 177.6 582.94 163.8 582.94 181C582.94 186.8 577.74 190 568.14 190C560.94 190 555.54 187.6 553.74 182.4C552.54 179.8 551.54 178.2 548.74 178.2H532.74C529.74 178.2 527.74 180 528.14 183.2C530.34 203.2 547.74 212.8 568.14 212.8C590.34 212.8 608.74 202.4 608.74 181C608.74 142.4 554.74 156.6 554.74 139.2Z" fill="#666666"/>
</svg>
