<svg width="1920" height="1080" viewBox="0 0 1920 1080" fill="none" xmlns="http://www.w3.org/2000/svg">
<g filter="url(#filter0_d_2220_69)">
<rect x="745" y="87" width="431" height="905" rx="45" fill="url(#paint0_diamond_2220_69)"/>
<rect x="776" y="115" width="132" height="221" rx="23" fill="url(#paint1_linear_2220_69)" stroke="black" stroke-width="4"/>
<rect x="784" y="122" width="61" height="206" rx="15" fill="black"/>
<rect x="790.786" y="128.786" width="46.4286" height="46.4286" rx="23.2143" fill="black" stroke="#1A1A1A" stroke-width="3.57143"/>
<rect opacity="0.5" x="802.095" y="140.095" width="23.8095" height="23.8095" rx="11.9048" fill="url(#paint2_radial_2220_69)"/>
<rect x="790.786" y="186.786" width="46.4286" height="46.4286" rx="23.2143" fill="black" stroke="#1A1A1A" stroke-width="3.57143"/>
<rect opacity="0.5" x="802.095" y="198.095" width="23.8095" height="23.8095" rx="11.9048" fill="url(#paint3_radial_2220_69)"/>
<rect x="790.786" y="244.786" width="46.4286" height="46.4286" rx="23.2143" fill="black" stroke="#1A1A1A" stroke-width="3.57143"/>
<rect opacity="0.5" x="802.095" y="256.095" width="23.8095" height="23.8095" rx="11.9048" fill="url(#paint4_radial_2220_69)"/>
<g filter="url(#filter1_di_2220_69)">
<rect x="794" y="306" width="41" height="15" rx="7.5" fill="#C5C776"/>
</g>
<path d="M805.617 910.716V884.467C805.617 879.085 806.423 874.461 808.034 870.594C809.646 866.694 812.03 863.697 815.188 861.603C818.347 859.508 822.23 858.46 826.838 858.46C830.609 858.46 833.848 859.105 836.555 860.394C839.229 861.651 841.469 863.439 843.274 865.76C845.046 868.048 846.464 870.739 847.528 873.833L849.945 878.425V901.241L838.633 901.338V884.371C838.633 881.825 838.182 879.714 837.28 878.038C836.377 876.362 835.121 875.105 833.509 874.268C831.898 873.397 830.029 872.962 827.902 872.962C825.646 872.962 823.696 873.381 822.053 874.219C820.409 875.057 819.152 876.33 818.282 878.038C817.412 879.746 816.977 881.889 816.977 884.467V896.214H876V910.716H805.617ZM876 871.367L844.627 887.416L844.531 872.092L875.323 855.85H876V871.367ZM876.967 824.091C876.967 828.151 876.322 831.793 875.033 835.016C873.712 838.238 871.891 840.978 869.571 843.233C867.25 845.457 864.56 847.165 861.498 848.357C858.404 849.55 855.117 850.146 851.637 850.146H849.703C845.739 850.146 842.114 849.582 838.827 848.454C835.54 847.326 832.687 845.715 830.27 843.62C827.854 841.493 826 838.915 824.711 835.886C823.39 832.856 822.729 829.44 822.729 825.638C822.729 821.932 823.342 818.645 824.566 815.776C825.791 812.908 827.531 810.507 829.787 808.574C832.043 806.608 834.75 805.126 837.908 804.126C841.034 803.127 844.515 802.628 848.35 802.628H854.15V844.2H844.869V816.308H843.806C841.872 816.308 840.148 816.663 838.633 817.372C837.086 818.048 835.862 819.08 834.959 820.465C834.057 821.851 833.606 823.624 833.606 825.783C833.606 827.62 834.009 829.199 834.814 830.52C835.62 831.841 836.748 832.921 838.198 833.759C839.648 834.564 841.356 835.177 843.322 835.596C845.256 835.982 847.383 836.176 849.703 836.176H851.637C853.731 836.176 855.665 835.886 857.437 835.306C859.21 834.693 860.741 833.839 862.03 832.744C863.319 831.616 864.318 830.262 865.027 828.683C865.736 827.072 866.09 825.251 866.09 823.221C866.09 820.707 865.607 818.371 864.64 816.211C863.641 814.02 862.143 812.135 860.145 810.556L867.492 803.788C869.071 804.884 870.586 806.382 872.036 808.284C873.486 810.153 874.679 812.409 875.613 815.051C876.516 817.694 876.967 820.707 876.967 824.091ZM864.592 763.811H801.75V749.793H876V762.409L864.592 763.811ZM850.477 796.876H849.461C845.465 796.876 841.84 796.424 838.585 795.522C835.298 794.62 832.478 793.298 830.125 791.558C827.773 789.818 825.952 787.675 824.663 785.129C823.374 782.583 822.729 779.683 822.729 776.428C822.729 773.366 823.374 770.691 824.663 768.403C825.952 766.083 827.789 764.117 830.174 762.506C832.526 760.862 835.314 759.541 838.537 758.542C841.727 757.543 845.224 756.818 849.026 756.367H851.25C854.892 756.818 858.275 757.543 861.401 758.542C864.527 759.541 867.267 760.862 869.619 762.506C871.939 764.117 873.744 766.083 875.033 768.403C876.322 770.724 876.967 773.431 876.967 776.524C876.967 779.779 876.306 782.68 874.985 785.226C873.664 787.739 871.811 789.866 869.426 791.606C867.041 793.314 864.237 794.62 861.015 795.522C857.792 796.424 854.279 796.876 850.477 796.876ZM849.461 782.954H850.477C852.636 782.954 854.65 782.793 856.519 782.47C858.388 782.116 860.048 781.552 861.498 780.778C862.916 779.973 864.028 778.941 864.833 777.685C865.607 776.396 865.994 774.833 865.994 772.996C865.994 770.611 865.462 768.645 864.398 767.098C863.303 765.551 861.804 764.375 859.903 763.569C858.001 762.731 855.81 762.248 853.329 762.119H846.996C844.966 762.216 843.145 762.506 841.534 762.989C839.89 763.44 838.488 764.117 837.328 765.02C836.168 765.89 835.266 766.985 834.621 768.307C833.977 769.596 833.654 771.126 833.654 772.899C833.654 774.704 834.073 776.251 834.911 777.54C835.717 778.829 836.829 779.876 838.247 780.682C839.665 781.455 841.34 782.035 843.274 782.422C845.175 782.776 847.238 782.954 849.461 782.954ZM834.524 724.994H876V738.964H823.696V725.864L834.524 724.994ZM848.011 726.928V730.795C844.37 730.795 841.018 730.36 837.957 729.49C834.863 728.587 832.188 727.282 829.932 725.574C827.644 723.834 825.872 721.691 824.615 719.145C823.358 716.599 822.729 713.65 822.729 710.299C822.729 707.979 823.084 705.852 823.793 703.918C824.47 701.984 825.549 700.325 827.032 698.939C828.482 697.521 830.383 696.425 832.736 695.652C835.056 694.878 837.844 694.492 841.099 694.492H876V708.414H842.645C840.261 708.414 838.424 708.736 837.135 709.38C835.846 710.025 834.943 710.943 834.428 712.136C833.912 713.296 833.654 714.698 833.654 716.341C833.654 718.146 834.025 719.725 834.766 721.079C835.507 722.4 836.539 723.496 837.86 724.366C839.149 725.236 840.664 725.88 842.404 726.299C844.144 726.718 846.013 726.928 848.011 726.928ZM846.416 695.797L847.044 700.776C843.628 700.776 840.454 700.357 837.521 699.519C834.589 698.649 832.011 697.376 829.787 695.7C827.563 693.992 825.839 691.881 824.615 689.368C823.358 686.854 822.729 683.954 822.729 680.667C822.729 678.153 823.1 675.865 823.841 673.802C824.55 671.74 825.694 669.983 827.273 668.533C828.82 667.051 830.851 665.923 833.364 665.149C835.878 664.344 838.956 663.941 842.597 663.941H876V677.911H842.597C840.18 677.911 838.343 678.233 837.086 678.878C835.797 679.49 834.911 680.393 834.428 681.585C833.912 682.745 833.654 684.131 833.654 685.742C833.654 687.418 833.993 688.884 834.669 690.141C835.314 691.398 836.216 692.445 837.376 693.283C838.537 694.121 839.89 694.75 841.437 695.168C842.952 695.587 844.611 695.797 846.416 695.797ZM823.696 638.466H876V652.436H823.696V638.466ZM810.064 653.306C808.034 653.306 806.358 652.597 805.037 651.179C803.716 649.761 803.055 647.86 803.055 645.475C803.055 643.123 803.716 641.237 805.037 639.819C806.358 638.369 808.034 637.644 810.064 637.644C812.095 637.644 813.771 638.369 815.092 639.819C816.413 641.237 817.074 643.123 817.074 645.475C817.074 647.86 816.413 649.761 815.092 651.179C813.771 652.597 812.095 653.306 810.064 653.306Z" fill="black" fill-opacity="0.6"/>
</g>
<defs>
<filter id="filter0_d_2220_69" x="730" y="72" width="461" height="935" filterUnits="userSpaceOnUse" color-interpolation-filters="sRGB">
<feFlood flood-opacity="0" result="BackgroundImageFix"/>
<feColorMatrix in="SourceAlpha" type="matrix" values="0 0 0 0 0 0 0 0 0 0 0 0 0 0 0 0 0 0 127 0" result="hardAlpha"/>
<feOffset/>
<feGaussianBlur stdDeviation="7.5"/>
<feComposite in2="hardAlpha" operator="out"/>
<feColorMatrix type="matrix" values="0 0 0 0 0 0 0 0 0 0 0 0 0 0 0 0 0 0 1 0"/>
<feBlend mode="normal" in2="BackgroundImageFix" result="effect1_dropShadow_2220_69"/>
<feBlend mode="normal" in="SourceGraphic" in2="effect1_dropShadow_2220_69" result="shape"/>
</filter>
<filter id="filter1_di_2220_69" x="790" y="302" width="49" height="23" filterUnits="userSpaceOnUse" color-interpolation-filters="sRGB">
<feFlood flood-opacity="0" result="BackgroundImageFix"/>
<feColorMatrix in="SourceAlpha" type="matrix" values="0 0 0 0 0 0 0 0 0 0 0 0 0 0 0 0 0 0 127 0" result="hardAlpha"/>
<feOffset/>
<feGaussianBlur stdDeviation="2"/>
<feComposite in2="hardAlpha" operator="out"/>
<feColorMatrix type="matrix" values="0 0 0 0 0 0 0 0 0 0 0 0 0 0 0 0 0 0 1 0"/>
<feBlend mode="normal" in2="BackgroundImageFix" result="effect1_dropShadow_2220_69"/>
<feBlend mode="normal" in="SourceGraphic" in2="effect1_dropShadow_2220_69" result="shape"/>
<feColorMatrix in="SourceAlpha" type="matrix" values="0 0 0 0 0 0 0 0 0 0 0 0 0 0 0 0 0 0 127 0" result="hardAlpha"/>
<feOffset/>
<feGaussianBlur stdDeviation="3"/>
<feComposite in2="hardAlpha" operator="arithmetic" k2="-1" k3="1"/>
<feColorMatrix type="matrix" values="0 0 0 0 0 0 0 0 0 0 0 0 0 0 0 0 0 0 1 0"/>
<feBlend mode="normal" in2="shape" result="effect2_innerShadow_2220_69"/>
</filter>
<radialGradient id="paint0_diamond_2220_69" cx="0" cy="0" r="1" gradientUnits="userSpaceOnUse" gradientTransform="translate(843 266.5) rotate(66.3357) scale(985.356 469.269)">
<stop/>
<stop offset="1" stop-color="#717171"/>
</radialGradient>
<linearGradient id="paint1_linear_2220_69" x1="842" y1="117" x2="842" y2="353.2" gradientUnits="userSpaceOnUse">
<stop stop-color="#717171"/>
<stop offset="1" stop-color="#121212"/>
</linearGradient>
<radialGradient id="paint2_radial_2220_69" cx="0" cy="0" r="1" gradientUnits="userSpaceOnUse" gradientTransform="translate(814 152) rotate(90) scale(11.9048)">
<stop stop-color="#123929"/>
<stop offset="0.635417" stop-color="#004E66"/>
<stop offset="1"/>
</radialGradient>
<radialGradient id="paint3_radial_2220_69" cx="0" cy="0" r="1" gradientUnits="userSpaceOnUse" gradientTransform="translate(814 210) rotate(90) scale(11.9048)">
<stop stop-color="#123929"/>
<stop offset="0.635417" stop-color="#004E66"/>
<stop offset="1"/>
</radialGradient>
<radialGradient id="paint4_radial_2220_69" cx="0" cy="0" r="1" gradientUnits="userSpaceOnUse" gradientTransform="translate(814 268) rotate(90) scale(11.9048)">
<stop stop-color="#123929"/>
<stop offset="0.635417" stop-color="#004E66"/>
<stop offset="1"/>
</radialGradient>
</defs>
</svg>
